<svg width="165" height="34" viewBox="0 0 165 34" fill="none" xmlns="http://www.w3.org/2000/svg">
<path d="M9.9316 8.22581L1.79299 0.330146C1.12264 -0.320197 0 0.154812 0 1.08879V32.943C0 33.5268 0.473232 34 1.05699 34H29.4197L24.8394 28.8912L7.72635 28.7397C6.17945 28.7261 4.93264 27.4682 4.93264 25.9212V11.0984C4.93264 10.5147 5.40588 10.0415 5.98964 10.0415H9.1956C10.145 10.0415 10.613 8.88691 9.9316 8.22581Z" fill="#0334BC"/>
<path d="M25.4777 25.7742L33.6163 33.6699C34.2867 34.3202 35.4093 33.8452 35.4093 32.9112V1.05699C35.4093 0.473233 34.9361 0 34.3523 0H5.98964L10.5699 5.10881L27.683 5.26025C29.2299 5.27394 30.4767 6.53183 30.4767 8.07879V22.9016C30.4767 23.4853 30.0035 23.9585 29.4197 23.9585H26.2137C25.2643 23.9585 24.7963 25.1131 25.4777 25.7742Z" fill="#0334BC"/>
<path d="M18.1935 10.3938H16.2073C15.8181 10.3938 15.5026 10.7093 15.5026 11.0984V18.3399C15.5026 18.5917 15.637 18.8244 15.8552 18.9503L22.1135 22.5601C22.4506 22.7545 22.8815 22.6389 23.0759 22.3018L24.0697 20.5792C24.2641 20.2423 24.1487 19.8116 23.8119 19.617L19.2503 16.9809C19.0324 16.855 18.8982 16.6225 18.8982 16.3708V11.0984C18.8982 10.7093 18.5827 10.3938 18.1935 10.3938Z" fill="#0334BC"/>
<path d="M50.3017 26V9.64124H53.4228V26H50.3017ZM44.6784 10.6368V7.67711H59.2614V10.6368H44.6784Z" fill="black"/>
<path d="M64.3068 26H61.1858V12.8699H64.3068V26ZM60.7822 8.78025C60.7822 8.20626 60.9526 7.73989 61.2934 7.38115C61.6521 7.00446 62.1364 6.81612 62.7463 6.81612C63.3203 6.81612 63.7867 7.00446 64.1454 7.38115C64.5042 7.73989 64.6835 8.20626 64.6835 8.78025C64.6835 9.35424 64.5042 9.82061 64.1454 10.1794C63.7867 10.5381 63.3203 10.7175 62.7463 10.7175C62.1364 10.7175 61.6521 10.5381 61.2934 10.1794C60.9526 9.82061 60.7822 9.35424 60.7822 8.78025Z" fill="black"/>
<path d="M67.5957 26V12.8699H69.9365L70.5822 15.2646L69.6674 15.2915C70.1517 14.7354 70.6629 14.2601 71.201 13.8655C71.7571 13.4529 72.349 13.139 72.9768 12.9238C73.6226 12.6906 74.2862 12.574 74.9679 12.574C75.8827 12.574 76.6091 12.7264 77.1472 13.0314C77.6854 13.3363 78.08 13.7578 78.3311 14.296C78.6002 14.8161 78.7706 15.4081 78.8423 16.0717C78.932 16.7175 78.9768 17.3901 78.9768 18.0897V26H75.8558V17.8206C75.8558 16.9417 75.6674 16.3587 75.2907 16.0717C74.932 15.7668 74.4925 15.6143 73.9724 15.6143C73.2549 15.6143 72.5553 15.8386 71.8737 16.287C71.1921 16.7354 70.6629 17.2915 70.2862 17.9551L70.0441 16.2601H70.7167V26H67.5957ZM84.1159 26V17.8206C84.1159 16.9417 83.9275 16.3587 83.5508 16.0717C83.1921 15.7668 82.7616 15.6143 82.2594 15.6143C81.5239 15.6143 80.8154 15.8386 80.1338 16.287C79.4522 16.7354 78.923 17.2915 78.5463 17.9551L77.9544 15.2915C78.4208 14.7354 78.923 14.2601 79.4611 13.8655C80.0172 13.4529 80.6091 13.139 81.2369 12.9238C81.8827 12.6906 82.5463 12.574 83.228 12.574C84.1428 12.574 84.8692 12.7264 85.4073 13.0314C85.9455 13.3363 86.3401 13.7578 86.5912 14.296C86.8603 14.8161 87.0307 15.4081 87.1024 16.0717C87.1921 16.7175 87.2369 17.3901 87.2369 18.0897V26H84.1159Z" fill="black"/>
<path d="M95.8695 26.2691C94.578 26.2691 93.448 25.991 92.4794 25.435C91.5108 24.861 90.7484 24.0628 90.1924 23.0404C89.6543 22.0179 89.3852 20.8251 89.3852 19.4619C89.3852 18.0807 89.6543 16.8789 90.1924 15.8565C90.7484 14.8161 91.5108 14.009 92.4794 13.435C93.448 12.861 94.578 12.574 95.8695 12.574C97.1789 12.574 98.3179 12.8699 99.2866 13.4619C100.273 14.0359 101.035 14.843 101.574 15.8834C102.112 16.9058 102.381 18.0897 102.381 19.435C102.381 19.5964 102.372 19.7578 102.354 19.9193C102.354 20.0807 102.345 20.2242 102.327 20.3498H92.1296V17.8475H100.013L99.3673 19.2735C99.3673 18.0359 99.0803 17.0224 98.5063 16.2332C97.9323 15.4439 97.0623 15.0493 95.8964 15.0493C94.8381 15.0493 93.9951 15.3812 93.3673 16.0448C92.7574 16.6906 92.4525 17.5516 92.4525 18.6278V20.0538C92.4525 21.1659 92.7574 22.0538 93.3673 22.7175C93.9951 23.3632 94.8561 23.6861 95.9502 23.6861C96.9368 23.6861 97.6991 23.4798 98.2372 23.0673C98.7933 22.6547 99.2686 22.1435 99.6632 21.5336L101.896 22.8789C101.304 23.991 100.515 24.8341 99.5287 25.4081C98.5422 25.9821 97.3224 26.2691 95.8695 26.2691Z" fill="black"/>
<path d="M111.045 26.4305C110.059 26.4305 109.117 26.287 108.22 26C107.323 25.6951 106.507 25.2197 105.772 24.574C105.036 23.9103 104.418 23.0404 103.915 21.9641L106.445 20.4574C107.036 21.4978 107.709 22.2601 108.463 22.7444C109.216 23.2287 110.122 23.4708 111.18 23.4708C112.167 23.4708 112.911 23.2556 113.413 22.8251C113.933 22.3946 114.193 21.8027 114.193 21.0493C114.193 20.6009 114.077 20.2152 113.844 19.8924C113.628 19.5516 113.234 19.2377 112.66 18.9507C112.104 18.6457 111.306 18.3677 110.265 18.1166C108.83 17.7578 107.709 17.3184 106.902 16.7982C106.095 16.2601 105.53 15.6412 105.207 14.9417C104.884 14.2242 104.723 13.4439 104.723 12.6009C104.723 11.5605 104.965 10.6547 105.449 9.88339C105.933 9.11209 106.633 8.50222 107.548 8.05379C108.463 7.60536 109.548 7.38115 110.803 7.38115C112.292 7.38115 113.521 7.66814 114.489 8.24213C115.476 8.81613 116.292 9.57846 116.938 10.5291L114.382 12.2242C113.862 11.5605 113.288 11.0942 112.66 10.8251C112.05 10.5381 111.413 10.3946 110.75 10.3946C109.799 10.3946 109.072 10.5829 108.57 10.9596C108.068 11.3184 107.817 11.8475 107.817 12.5471C107.817 13.139 108.059 13.6502 108.543 14.0807C109.028 14.5112 109.969 14.8968 111.368 15.2377C112.875 15.6143 114.068 16.0628 114.947 16.5829C115.826 17.0852 116.445 17.704 116.803 18.4395C117.18 19.1569 117.368 20.0179 117.368 21.0224C117.368 22.0448 117.108 22.9596 116.588 23.7668C116.068 24.574 115.332 25.2197 114.382 25.704C113.449 26.1883 112.337 26.4305 111.045 26.4305Z" fill="black"/>
<path d="M122.129 26L118.04 12.8699H121.134L123.905 22.7175H123.232L126.38 12.8699H129.044L132.219 22.7175H131.546L134.318 12.8699H137.358L133.268 26H130.551L127.376 16.1794H128.075L124.901 26H122.129Z" fill="black"/>
<path d="M142.523 26.3767C141.518 26.3767 140.648 26.1973 139.913 25.8386C139.195 25.4619 138.639 24.9417 138.245 24.278C137.85 23.6143 137.653 22.8251 137.653 21.9103C137.653 21.0134 137.85 20.2332 138.245 19.5695C138.657 18.9058 139.231 18.3856 139.967 18.009C140.702 17.6143 141.554 17.417 142.523 17.417C143.796 17.417 144.819 17.704 145.59 18.278C146.379 18.852 146.917 19.6592 147.204 20.6995L145.644 20.5919V17.3363C145.644 16.7982 145.456 16.3139 145.079 15.8834C144.72 15.4529 144.101 15.2377 143.222 15.2377C142.72 15.2377 142.164 15.3004 141.554 15.426C140.944 15.5336 140.317 15.7399 139.671 16.0448L138.729 13.7309C139.482 13.3542 140.272 13.0673 141.097 12.8699C141.94 12.6726 142.774 12.574 143.599 12.574C144.765 12.574 145.725 12.7892 146.478 13.2197C147.249 13.6323 147.823 14.1973 148.2 14.9148C148.577 15.6323 148.765 16.4574 148.765 17.3901V26H146.37L145.671 23.5516L147.204 23.0942C146.899 24.1704 146.334 24.9865 145.509 25.5426C144.702 26.0987 143.707 26.3767 142.523 26.3767ZM143.249 23.8206C143.967 23.8206 144.541 23.6502 144.971 23.3094C145.42 22.9686 145.644 22.5022 145.644 21.9103C145.644 21.2825 145.42 20.8072 144.971 20.4843C144.541 20.1435 143.967 19.9731 143.249 19.9731C142.532 19.9731 141.949 20.1435 141.5 20.4843C141.07 20.8072 140.855 21.2825 140.855 21.9103C140.855 22.5022 141.07 22.9686 141.5 23.3094C141.949 23.6502 142.532 23.8206 143.249 23.8206Z" fill="black"/>
<path d="M158.721 26.296C157.538 26.296 156.506 26.0179 155.627 25.4619C154.766 24.9058 154.094 24.1166 153.609 23.0942C153.125 22.0717 152.883 20.861 152.883 19.4619C152.883 18.0628 153.125 16.852 153.609 15.8296C154.112 14.7892 154.793 13.991 155.654 13.435C156.533 12.861 157.555 12.574 158.721 12.574C159.941 12.574 160.999 12.861 161.896 13.435C162.811 14.009 163.52 14.8161 164.022 15.8565C164.524 16.8789 164.775 18.0807 164.775 19.4619C164.775 20.8072 164.524 22 164.022 23.0404C163.52 24.0628 162.811 24.861 161.896 25.435C160.981 26.009 159.923 26.296 158.721 26.296ZM151.86 31.1121V12.8699H154.201L154.981 15.7489H154.712V22.7713H154.981V31.1121H151.86ZM158.21 23.4978C159.215 23.4978 160.031 23.13 160.659 22.3946C161.286 21.6413 161.6 20.6637 161.6 19.4619C161.6 18.2421 161.286 17.2556 160.659 16.5022C160.031 15.7489 159.215 15.3722 158.21 15.3722C157.224 15.3722 156.407 15.7489 155.762 16.5022C155.134 17.2377 154.82 18.2152 154.82 19.435C154.82 20.6547 155.134 21.6413 155.762 22.3946C156.407 23.13 157.224 23.4978 158.21 23.4978Z" fill="black"/>
</svg>
