<svg width="207" height="260" viewBox="0 0 207 260" fill="none" xmlns="http://www.w3.org/2000/svg">
<path d="M57.7939 48.3264L10.4745 2.4195C6.57693 -1.36172 0.0496826 1.40007 0.0496826 6.83041V192.037C0.0496826 195.431 2.80114 198.182 6.19524 198.182H171.101L144.47 168.479L44.9721 167.598C35.9781 167.519 28.729 160.205 28.729 151.211V65.0284C28.729 61.6343 31.4804 58.8828 34.8745 58.8828H53.5146C59.0348 58.8828 61.7559 52.1701 57.7939 48.3264Z" fill="white"/>
<path d="M148.182 150.356L195.501 196.263C199.399 200.044 205.926 197.282 205.926 191.852V6.64553C205.926 3.25144 203.175 0.499969 199.781 0.499969H34.8745L61.5053 30.2035L161.004 31.0841C169.998 31.1636 177.247 38.4772 177.247 47.4716V133.654C177.247 137.048 174.495 139.799 171.101 139.799H152.461C146.941 139.799 144.22 146.512 148.182 150.356Z" fill="white"/>
<path d="M105.83 60.9314H94.2817C92.0189 60.9314 90.1846 62.7657 90.1846 65.0284V107.131C90.1846 108.596 90.9662 109.949 92.2346 110.68L128.622 131.668C130.582 132.799 133.087 132.127 134.218 130.167L139.996 120.151C141.126 118.192 140.455 115.688 138.497 114.557L111.974 99.2302C110.707 98.4981 109.927 97.146 109.927 95.6829V65.0284C109.927 62.7657 108.093 60.9314 105.83 60.9314Z" fill="white"/>
<path d="M9.73745 250.693V222.51H15.1144V250.693H9.73745ZM0.0496826 224.225V219.127H25.173V224.225H0.0496826Z" fill="white"/>
<path d="M33.8652 250.693H28.4883V228.073H33.8652V250.693ZM27.793 221.027C27.793 220.038 28.0866 219.235 28.6737 218.617C29.2917 217.968 30.1261 217.643 31.1768 217.643C32.1656 217.643 32.9691 217.968 33.5871 218.617C34.2052 219.235 34.5142 220.038 34.5142 221.027C34.5142 222.016 34.2052 222.819 33.5871 223.437C32.9691 224.055 32.1656 224.364 31.1768 224.364C30.1261 224.364 29.2917 224.055 28.6737 223.437C28.0866 222.819 27.793 222.016 27.793 221.027Z" fill="white"/>
<path d="M39.5312 250.693V228.073H43.5639L44.6763 232.198L43.1003 232.244C43.9347 231.286 44.8154 230.468 45.7424 229.788C46.7004 229.077 47.7202 228.536 48.8017 228.165C49.9142 227.764 51.0576 227.563 52.2319 227.563C53.8079 227.563 55.0594 227.825 55.9864 228.351C56.9135 228.876 57.5933 229.602 58.026 230.529C58.4895 231.426 58.7831 232.445 58.9067 233.589C59.0612 234.701 59.1384 235.86 59.1384 237.065V250.693H53.7615V236.602C53.7615 235.087 53.437 234.083 52.7881 233.589C52.1701 233.063 51.413 232.801 50.5168 232.801C49.2807 232.801 48.0755 233.187 46.9013 233.96C45.727 234.732 44.8154 235.69 44.1665 236.833L43.7493 233.913H44.9081V250.693H39.5312ZM67.9919 250.693V236.602C67.9919 235.087 67.6674 234.083 67.0184 233.589C66.4004 233.063 65.6588 232.801 64.7935 232.801C63.5265 232.801 62.3059 233.187 61.1316 233.96C59.9573 234.732 59.0457 235.69 58.3968 236.833L57.377 232.244C58.1805 231.286 59.0457 230.468 59.9728 229.788C60.9308 229.077 61.9505 228.536 63.0321 228.165C64.1446 227.764 65.2879 227.563 66.4622 227.563C68.0382 227.563 69.2897 227.825 70.2168 228.351C71.1439 228.876 71.8237 229.602 72.2563 230.529C72.7198 231.426 73.0134 232.445 73.137 233.589C73.2915 234.701 73.3688 235.86 73.3688 237.065V250.693H67.9919Z" fill="white"/>
<path d="M88.2408 251.156C86.0159 251.156 84.0691 250.677 82.4004 249.72C80.7317 248.731 79.4183 247.356 78.4604 245.594C77.5333 243.833 77.0698 241.778 77.0698 239.429C77.0698 237.05 77.5333 234.979 78.4604 233.218C79.4183 231.426 80.7317 230.035 82.4004 229.046C84.0691 228.057 86.0159 227.563 88.2408 227.563C90.4967 227.563 92.459 228.073 94.1277 229.092C95.8273 230.081 97.1406 231.472 98.0677 233.264C98.9947 235.026 99.4583 237.065 99.4583 239.383C99.4583 239.661 99.4428 239.939 99.4119 240.217C99.4119 240.495 99.3964 240.742 99.3655 240.959H81.7978V236.648H95.3792L94.2667 239.105C94.2667 236.972 93.7723 235.227 92.7834 233.867C91.7946 232.507 90.2958 231.827 88.2872 231.827C86.464 231.827 85.0116 232.399 83.93 233.542C82.8794 234.655 82.354 236.138 82.354 237.992V240.449C82.354 242.365 82.8794 243.894 83.93 245.038C85.0116 246.15 86.4949 246.707 88.3799 246.707C90.0795 246.707 91.3928 246.351 92.3199 245.64C93.2779 244.93 94.0968 244.049 94.7766 242.998L98.6239 245.316C97.6041 247.232 96.2444 248.684 94.5448 249.673C92.8452 250.662 90.7439 251.156 88.2408 251.156Z" fill="white"/>
<path d="M114.386 251.435C112.686 251.435 111.064 251.187 109.519 250.693C107.974 250.168 106.568 249.349 105.301 248.236C104.034 247.093 102.967 245.594 102.102 243.74L106.459 241.144C107.479 242.937 108.638 244.25 109.936 245.084C111.234 245.919 112.794 246.336 114.617 246.336C116.317 246.336 117.6 245.965 118.465 245.223C119.361 244.482 119.809 243.462 119.809 242.164C119.809 241.391 119.608 240.727 119.206 240.171C118.836 239.584 118.156 239.043 117.167 238.548C116.209 238.023 114.834 237.544 113.041 237.112C110.569 236.493 108.638 235.736 107.247 234.84C105.857 233.913 104.883 232.847 104.327 231.642C103.771 230.406 103.493 229.062 103.493 227.609C103.493 225.817 103.91 224.256 104.744 222.928C105.579 221.599 106.784 220.548 108.36 219.776C109.936 219.003 111.805 218.617 113.969 218.617C116.533 218.617 118.65 219.111 120.319 220.1C122.018 221.089 123.425 222.402 124.537 224.04L120.133 226.96C119.237 225.817 118.248 225.013 117.167 224.55C116.116 224.055 115.019 223.808 113.876 223.808C112.238 223.808 110.986 224.133 110.121 224.782C109.256 225.4 108.823 226.311 108.823 227.516C108.823 228.536 109.241 229.417 110.075 230.159C110.909 230.9 112.532 231.565 114.942 232.152C117.538 232.801 119.593 233.573 121.107 234.469C122.621 235.335 123.687 236.401 124.305 237.668C124.954 238.904 125.279 240.387 125.279 242.118C125.279 243.879 124.831 245.455 123.934 246.846C123.038 248.236 121.771 249.349 120.133 250.183C118.527 251.017 116.611 251.435 114.386 251.435Z" fill="white"/>
<path d="M133.481 250.693L126.435 228.073H131.766L136.54 245.038H135.381L140.804 228.073H145.393L150.863 245.038H149.704L154.478 228.073H159.716L152.671 250.693H147.989L142.519 233.774H143.725L138.255 250.693H133.481Z" fill="white"/>
<path d="M168.614 251.342C166.884 251.342 165.385 251.033 164.118 250.415C162.882 249.766 161.924 248.87 161.244 247.726C160.564 246.583 160.224 245.223 160.224 243.647C160.224 242.102 160.564 240.758 161.244 239.615C161.955 238.471 162.944 237.575 164.211 236.926C165.478 236.246 166.946 235.906 168.614 235.906C170.808 235.906 172.57 236.401 173.899 237.39C175.258 238.378 176.185 239.769 176.68 241.561L173.991 241.376V235.767C173.991 234.84 173.667 234.006 173.018 233.264C172.4 232.523 171.334 232.152 169.819 232.152C168.954 232.152 167.996 232.26 166.946 232.476C165.895 232.662 164.813 233.017 163.701 233.542L162.079 229.556C163.376 228.907 164.736 228.413 166.158 228.073C167.61 227.733 169.047 227.563 170.468 227.563C172.477 227.563 174.13 227.934 175.428 228.675C176.757 229.386 177.746 230.359 178.395 231.596C179.044 232.832 179.368 234.253 179.368 235.86V250.693H175.243L174.038 246.475L176.68 245.687C176.154 247.541 175.181 248.947 173.759 249.905C172.369 250.863 170.654 251.342 168.614 251.342ZM169.866 246.938C171.102 246.938 172.091 246.645 172.832 246.058C173.605 245.471 173.991 244.667 173.991 243.647C173.991 242.566 173.605 241.747 172.832 241.191C172.091 240.603 171.102 240.31 169.866 240.31C168.63 240.31 167.625 240.603 166.853 241.191C166.111 241.747 165.74 242.566 165.74 243.647C165.74 244.667 166.111 245.471 166.853 246.058C167.625 246.645 168.63 246.938 169.866 246.938Z" fill="white"/>
<path d="M196.521 251.203C194.481 251.203 192.705 250.724 191.19 249.766C189.707 248.808 188.548 247.448 187.714 245.687C186.88 243.925 186.462 241.84 186.462 239.429C186.462 237.019 186.88 234.933 187.714 233.172C188.579 231.379 189.753 230.004 191.237 229.046C192.751 228.057 194.512 227.563 196.521 227.563C198.622 227.563 200.445 228.057 201.991 229.046C203.567 230.035 204.787 231.426 205.652 233.218C206.518 234.979 206.95 237.05 206.95 239.429C206.95 241.747 206.518 243.802 205.652 245.594C204.787 247.356 203.567 248.731 201.991 249.72C200.415 250.708 198.591 251.203 196.521 251.203ZM184.701 259.5V228.073H188.734L190.078 233.032H189.614V245.131H190.078V259.5H184.701ZM195.64 246.382C197.371 246.382 198.777 245.749 199.858 244.482C200.94 243.184 201.481 241.5 201.481 239.429C201.481 237.328 200.94 235.628 199.858 234.33C198.777 233.032 197.371 232.384 195.64 232.384C193.941 232.384 192.535 233.032 191.422 234.33C190.341 235.597 189.8 237.281 189.8 239.383C189.8 241.484 190.341 243.184 191.422 244.482C192.535 245.749 193.941 246.382 195.64 246.382Z" fill="white"/>
</svg>
